<?xml version="1.0" encoding="utf-8"?>

<!-- License Agreement at http://iconmonstr.com/license/ -->

<!DOCTYPE svg PUBLIC "-//W3C//DTD SVG 1.1//EN" "http://www.w3.org/Graphics/SVG/1.1/DTD/svg11.dtd">
<svg version="1.1" xmlns="http://www.w3.org/2000/svg" xmlns:xlink="http://www.w3.org/1999/xlink" x="0px" y="0px"
	 width="512px" height="512px" viewBox="0 0 512 512" style="enable-background:new 0 0 512 512;" xml:space="preserve">
<path id="flashlight-4" d="M462,273.166h-68.666v-34.332H462V273.166z M462,161.584l-53.109,37.552l-18.608-25.75l53.109-37.552
	L462,161.584z M443.392,376.166l-53.109-37.551l18.608-25.75L462,350.416L443.392,376.166z M318.229,153
	c-32.371,0-69.722,51.5-115.891,51.5H81.014C64.585,208.289,50,231.239,50,257.467c0,25.256,13.948,46.11,31.014,50.033h121.323
	c49.84,0,81.659,51.5,115.891,51.5H359V153H318.229z M290.334,310.015c-42.213-28.331-49.405-36.849-87.997-36.849H88.826
	c-1.895-2.488-4.493-7.861-4.493-15.699c0-8.868,3.101-15.448,5.364-18.633h112.64c36.177,0,45.465-8.189,87.997-36.479V310.015z
	 M324.666,324.666H307.5V187.334h17.166V324.666z M187.333,268.875c-7.108,0-12.875-5.768-12.875-12.875s5.767-12.875,12.875-12.875
	c7.108,0,12.875,5.768,12.875,12.875S194.441,268.875,187.333,268.875z"/>
</svg>
