<?xml version="1.0" encoding="utf-8"?>

<!-- License Agreement at http://iconmonstr.com/license/ -->

<!DOCTYPE svg PUBLIC "-//W3C//DTD SVG 1.1//EN" "http://www.w3.org/Graphics/SVG/1.1/DTD/svg11.dtd">
<svg version="1.1" xmlns="http://www.w3.org/2000/svg" xmlns:xlink="http://www.w3.org/1999/xlink" x="0px" y="0px"
	 width="512px" height="512px" viewBox="0 0 512 512" style="enable-background:new 0 0 512 512;" xml:space="preserve">
<path id="flashlight-1" d="M410.5,153c0,0-24.811,12.406-84.878,42.439c-11.919,5.959-25.062,9.061-38.374,9.061H81.022
	C64.577,208.289,50,231.239,50,257.467c0,25.256,13.948,46.11,31.022,50.033h206.226c13.312,0,26.455,2.564,38.374,8.516
	C384.816,346.092,410.5,359,410.5,359V153z M221.667,273.166c-9.48,0-17.167-7.686-17.167-17.166c0-9.48,7.687-17.167,17.167-17.167
	c9.48,0,17.167,7.687,17.167,17.167C238.833,265.48,231.147,273.166,221.667,273.166z M462,153v206h-34.334V153H462z"/>
</svg>
