<?xml version="1.0" encoding="utf-8"?>
<!-- Generator: Adobe Illustrator 17.0.0, SVG Export Plug-In . SVG Version: 6.00 Build 0)  -->
<!DOCTYPE svg PUBLIC "-//W3C//DTD SVG 1.1//EN" "http://www.w3.org/Graphics/SVG/1.1/DTD/svg11.dtd">
<svg version="1.1" id="Layer_1" xmlns="http://www.w3.org/2000/svg" xmlns:xlink="http://www.w3.org/1999/xlink" x="0px" y="0px"
	 width="123px" height="123px" viewBox="0 0 123 123" enable-background="new 0 0 123 123" xml:space="preserve">
<path d="M104.987,18.013C93.371,6.397,77.927,0,61.5,0C45.073,0,29.629,6.397,18.013,18.013C6.397,29.629,0,45.073,0,61.5
	c0,16.427,6.397,31.871,18.013,43.487C29.629,116.603,45.073,123,61.5,123c16.427,0,31.871-6.397,43.487-18.013
	C116.603,93.371,123,77.927,123,61.5C123,45.073,116.603,29.629,104.987,18.013z M5.319,61.5c0-30.978,25.203-56.181,56.181-56.181
	c14.534,0,27.797,5.549,37.782,14.638L68.713,50.39L56.845,62.103h0.019L19.957,99.146C10.868,89.161,5.319,76.034,5.319,61.5z
	 M61.5,117.681c-14.534,0-27.797-5.548-37.782-14.638l79.325-79.325c9.089,9.985,14.638,23.248,14.638,37.782
	C117.681,92.478,92.478,117.681,61.5,117.681z M67.246,49.891L55.899,61.237V49.892L67.246,49.891z M42.037,58.153l7.806,0.002
	l0.016-6.447c0-1.178,0.816-2.132,1.995-2.132s2.045,0.954,2.045,2.132v8.581c0,1.178-0.776,1.815-1.955,1.815h-9.907
	c-1.18,0-2.135-0.796-2.135-1.974C39.902,58.949,40.857,58.153,42.037,58.153z M36.321,81.103h-4.422V45.247
	c0-1.558,1.668-2.779,3.226-2.779c1.556,0,2.99,1.478,2.99,3.036l0.192,19.599h13.999l-6.83,6h-7.17l0.035,7.556L36.321,81.103z
	 M39.803,52.54c0-2.394,1.942-4.339,4.339-4.339c2.395,0,4.338,1.944,4.338,4.339c0,2.398-1.942,4.339-4.338,4.339
	C41.744,56.878,39.803,54.938,39.803,52.54z M90.899,52.634v28.469h-7v-10H57.742l6.719-6h19.439V52.634
	c0-1.558,1.942-2.821,3.498-2.821C88.956,49.813,90.899,51.076,90.899,52.634z M82.578,62.103H66.7l12.491-12.358
	c1.861,0.041,3.361,1.473,3.38,3.339L82.578,62.103z"/>
</svg>
