<?xml version="1.0" encoding="utf-8"?>
<!-- Generator: Adobe Illustrator 17.0.0, SVG Export Plug-In . SVG Version: 6.00 Build 0)  -->
<!DOCTYPE svg PUBLIC "-//W3C//DTD SVG 1.1//EN" "http://www.w3.org/Graphics/SVG/1.1/DTD/svg11.dtd">
<svg version="1.1" id="Layer_1" xmlns="http://www.w3.org/2000/svg" xmlns:xlink="http://www.w3.org/1999/xlink" x="0px" y="0px"
	 width="123px" height="122.956px" viewBox="0 0 123 122.956" enable-background="new 0 0 123 122.956" xml:space="preserve">
<g>
	<g>
		<path d="M61.5,123c-16.427,0-31.871-6.397-43.487-18.013C6.397,93.371,0,77.927,0,61.5s6.397-31.871,18.013-43.487
			C29.629,6.397,45.073,0,61.5,0c16.427,0,31.871,6.397,43.487,18.013S123,45.073,123,61.5s-6.397,31.871-18.013,43.487
			S77.927,123,61.5,123z M61.5,5.319C30.522,5.319,5.319,30.522,5.319,61.5s25.203,56.181,56.181,56.181
			c30.978,0,56.181-25.203,56.181-56.181S92.478,5.319,61.5,5.319z"/>
	</g>
	<g>
		<rect x="58.169" y="4.06" transform="matrix(0.7071 0.7071 -0.7071 0.7071 61.8435 -24.777)" width="5.319" height="116.4"/>
	</g>
	<g>
		<path d="M94.635,51.533h-6.633c-0.182,0-0.356,0.329-0.52,0.386l-3.515-7.145l-2.115,2.246l4.039,8.513H73.471l-11.611,11h7.192v5
			h-11.86l-4.992,5h25.851v5.142c0,1.174,1.152,1.858,2.326,1.858h8.781c1.174,0,1.893-0.684,1.893-1.858V70.886
			c0-0.201-0.03-0.396-0.081-0.58c0.052-0.207,0.081-0.422,0.081-0.645V59.498c0-0.343,0.174-0.965,0.054-1.965h3.529
			c0.882,0,1.417,0.271,1.417-0.609v-3.198C96.052,52.845,95.517,51.533,94.635,51.533z M77.697,66.32
			c-1.207,0-2.187-0.979-2.187-2.187c0-1.208,0.981-2.187,2.187-2.187c1.208,0,2.187,0.979,2.187,2.187
			C79.884,65.341,78.905,66.32,77.697,66.32z M84.623,67.521c-1.872,0-3.389-1.517-3.389-3.388c0-1.871,1.517-3.387,3.389-3.387
			c1.871,0,3.387,1.517,3.387,3.387C88.01,66.005,86.494,67.521,84.623,67.521z"/>
		<path d="M28.329,57.533h3.529c-0.12,1-0.807,1.622-0.807,1.965V69.66c0,0.223,0.032,0.438,0.084,0.645
			c-0.053,0.185-0.084,0.379-0.084,0.58v10.789c0,1.018,1.032,1.931,1.989,2.141l28.649-28.283H37.097l6.322-13H74.49l2.823-3
			H41.665l-6.142,12.269c-0.174-0.066-0.365-0.269-0.562-0.269h-6.632c-0.88,0-2.278,1.312-2.278,2.193v3.198
			C26.052,57.805,27.449,57.533,28.329,57.533z M45.267,61.946c1.209,0,2.188,0.979,2.188,2.187c0,1.208-0.979,2.187-2.188,2.187
			c-1.209,0-2.187-0.979-2.187-2.187C43.08,62.925,44.058,61.946,45.267,61.946z M38.342,60.746c1.872,0,3.387,1.517,3.387,3.387
			c0,1.871-1.516,3.388-3.387,3.388c-1.872,0-3.389-1.517-3.389-3.388C34.953,62.262,36.47,60.746,38.342,60.746z"/>
	</g>
</g>
</svg>
