<?xml version="1.0" encoding="utf-8"?>
<!-- Generator: Adobe Illustrator 17.0.0, SVG Export Plug-In . SVG Version: 6.00 Build 0)  -->
<!DOCTYPE svg PUBLIC "-//W3C//DTD SVG 1.1//EN" "http://www.w3.org/Graphics/SVG/1.1/DTD/svg11.dtd">
<svg version="1.1" id="Layer_1" xmlns="http://www.w3.org/2000/svg" xmlns:xlink="http://www.w3.org/1999/xlink" x="0px" y="0px"
	 width="122.991px" height="123px" viewBox="0 0 122.991 123" enable-background="new 0 0 122.991 123" xml:space="preserve">
<g>
	<g>
		<path d="M61.496,123c-16.426,0-31.869-6.397-43.484-18.013C6.397,93.371,0,77.927,0,61.5s6.397-31.871,18.012-43.487
			C29.627,6.397,45.07,0,61.496,0c16.426,0,31.869,6.397,43.484,18.013s18.012,27.06,18.012,43.487s-6.397,31.871-18.012,43.487
			S77.922,123,61.496,123z M61.496,5.319C30.52,5.319,5.319,30.522,5.319,61.5s25.201,56.181,56.177,56.181
			c30.976,0,56.177-25.203,56.177-56.181S92.472,5.319,61.496,5.319z"/>
	</g>
	<g>
		<rect x="58.165" y="4.062" transform="matrix(0.7071 0.7072 -0.7072 0.7071 61.8452 -24.774)" width="5.319" height="116.395"/>
	</g>
	<g>
		<polygon points="58.724,50.142 61.526,55.58 67.873,49.232 53.252,31.411 48.493,30.292 52.517,38.1 		"/>
		<path d="M73.739,56.38l-0.556-0.678l-11.669,11.67l-0.486,0.867l-0.598,1.068l-8.25,14.734l-4.852,8.666l6.272-1.102
			l19.919-25.018c0,0,19.216,0.223,19.184-5.329C92.669,55.708,73.739,56.38,73.739,56.38z"/>
		<polygon points="30.411,72.094 32.798,71.872 40.648,64.49 51.676,65.431 60.286,56.82 40.619,59.401 32.68,51.416 30.29,51.21 
			32.683,61.828 		"/>
	</g>
</g>
</svg>
